<svg width="536" height="430" viewBox="0 0 536 430" fill="none" xmlns="http://www.w3.org/2000/svg">
<g opacity="0.17" filter="url(#filter0_f_41_2)">
<path d="M19.3451 189.045C13.7284 184.219 15.1235 175.174 21.9334 172.265L263.167 69.1955C266.629 67.7164 270.628 68.3069 273.515 70.7235L299.105 92.1466C304.801 96.9146 303.494 106.008 296.686 108.98L56.7239 213.708C53.2054 215.243 49.1183 214.629 46.2066 212.127L19.3451 189.045Z" fill="#DEDEDE"/>
<path d="M232.374 372.523C226.81 367.693 228.204 358.708 234.97 355.79L479.148 250.476C482.615 248.981 486.629 249.566 489.526 251.989L514.987 273.294C520.669 278.047 519.389 287.113 512.614 290.109L269.845 397.449C266.301 399.016 262.17 398.394 259.245 395.854L232.374 372.523Z" fill="#DEDEDE"/>
<path d="M129.984 275.287C124.45 270.454 125.843 261.503 132.584 258.58L343.043 167.324C346.421 165.859 350.332 166.37 353.221 168.653L379.672 189.555C385.561 194.209 384.414 203.452 377.565 206.525L167.835 300.615C164.273 302.214 160.105 301.592 157.164 299.024L129.984 275.287Z" fill="#DEDEDE"/>
<path d="M52.1841 159.436C55.6462 157.967 59.6401 158.564 62.5208 160.982L306.32 365.638C311.996 370.402 310.699 379.468 303.916 382.451L269.653 397.519C266.122 399.072 262.013 398.455 259.093 395.935L19.3893 189.016C13.7832 184.177 15.1993 175.135 22.0164 172.242L52.1841 159.436Z" fill="#DEDEDE"/>
</g>
<g opacity="0.25" filter="url(#filter1_f_41_2)">
<path d="M18.6071 163.747C12.9905 158.921 14.3855 149.876 21.1954 146.967L262.429 43.8976C265.891 42.4184 269.89 43.009 272.777 45.4256L298.367 66.8486C304.063 71.6167 302.756 80.7104 295.948 83.6816L55.986 188.41C52.4674 189.945 48.3804 189.331 45.4687 186.829L18.6071 163.747Z" fill="#DEDEDE"/>
<path d="M231.636 347.225C226.072 342.395 227.466 333.41 234.232 330.492L478.41 225.178C481.877 223.683 485.892 224.268 488.788 226.691L514.249 247.996C519.931 252.75 518.651 261.815 511.876 264.811L269.107 372.151C265.563 373.718 261.433 373.096 258.507 370.556L231.636 347.225Z" fill="#DEDEDE"/>
<path d="M129.246 249.989C123.712 245.156 125.105 236.205 131.846 233.282L342.305 142.026C345.684 140.561 349.594 141.072 352.483 143.355L378.934 164.257C384.823 168.911 383.676 178.154 376.827 181.227L167.097 275.317C163.535 276.916 159.367 276.294 156.426 273.726L129.246 249.989Z" fill="#DEDEDE"/>
<path d="M51.4461 134.138C54.9082 132.669 58.9021 133.266 61.7828 135.684L305.582 340.34C311.258 345.104 309.961 354.17 303.179 357.153L268.915 372.221C265.384 373.774 261.275 373.157 258.355 370.637L18.6514 163.718C13.0453 158.879 14.4613 149.837 21.2785 146.944L51.4461 134.138Z" fill="#DEDEDE"/>
</g>
<path d="M19.844 138.726C14.2273 133.9 15.6223 124.855 22.4322 121.946L263.665 18.8766C267.127 17.3974 271.127 17.988 274.013 20.4046L299.604 41.8276C305.3 46.5957 303.993 55.6894 297.185 58.6606L57.2228 163.389C53.7043 164.924 49.6172 164.31 46.7055 161.808L19.844 138.726Z" fill="#FAF8FF"/>
<path d="M232.873 322.204C227.309 317.374 228.703 308.389 235.469 305.471L479.647 200.157C483.114 198.662 487.128 199.247 490.024 201.67L515.486 222.975C521.168 227.729 519.888 236.794 513.113 239.79L270.343 347.13C266.8 348.697 262.669 348.075 259.743 345.535L232.873 322.204Z" fill="#FAF8FF"/>
<path d="M130.483 224.968C124.949 220.135 126.342 211.184 133.083 208.261L343.542 117.005C346.92 115.54 350.831 116.051 353.72 118.334L380.17 139.236C386.06 143.89 384.913 153.133 378.063 156.206L168.334 250.296C164.771 251.895 160.604 251.273 157.663 248.705L130.483 224.968Z" fill="#FAF8FF"/>
<path d="M52.6829 109.117C56.1451 107.647 60.139 108.245 63.0197 110.663L306.819 315.319C312.494 320.083 311.198 329.149 304.415 332.132L270.152 347.2C266.621 348.753 262.512 348.136 259.592 345.616L19.8882 138.697C14.2821 133.858 15.6982 124.816 22.5153 121.922L52.6829 109.117Z" fill="#FAF8FF"/>
<defs>
<filter id="filter0_f_41_2" x="9.86035" y="62.3912" width="514.711" height="341.974" filterUnits="userSpaceOnUse" color-interpolation-filters="sRGB">
<feFlood flood-opacity="0" result="BackgroundImageFix"/>
<feBlend mode="normal" in="SourceGraphic" in2="BackgroundImageFix" result="shape"/>
<feGaussianBlur stdDeviation="3" result="effect1_foregroundBlur_41_2"/>
</filter>
<filter id="filter1_f_41_2" x="9.12241" y="37.0933" width="514.711" height="341.974" filterUnits="userSpaceOnUse" color-interpolation-filters="sRGB">
<feFlood flood-opacity="0" result="BackgroundImageFix"/>
<feBlend mode="normal" in="SourceGraphic" in2="BackgroundImageFix" result="shape"/>
<feGaussianBlur stdDeviation="3" result="effect1_foregroundBlur_41_2"/>
</filter>
</defs>
</svg>
