<svg width="535" height="380" viewBox="0 0 535 380" fill="none" xmlns="http://www.w3.org/2000/svg">
<path d="M18.844 138.726C13.2273 133.9 14.6223 124.855 21.4322 121.946L262.665 18.8766C266.127 17.3974 270.127 17.988 273.013 20.4046L298.604 41.8276C304.3 46.5957 302.993 55.6894 296.185 58.6606L56.2228 163.389C52.7043 164.924 48.6172 164.31 45.7055 161.808L18.844 138.726Z" fill="#FAF8FF"/>
<path d="M231.873 322.204C226.309 317.374 227.703 308.389 234.469 305.471L478.647 200.157C482.114 198.662 486.128 199.247 489.024 201.67L514.486 222.975C520.168 227.729 518.888 236.794 512.113 239.79L269.343 347.13C265.8 348.697 261.669 348.075 258.743 345.535L231.873 322.204Z" fill="#FAF8FF"/>
<path d="M129.483 224.968C123.949 220.135 125.342 211.184 132.083 208.261L342.542 117.005C345.92 115.54 349.831 116.051 352.72 118.334L379.17 139.236C385.06 143.89 383.913 153.133 377.064 156.206L167.334 250.296C163.771 251.895 159.604 251.273 156.663 248.705L129.483 224.968Z" fill="#FAF8FF"/>
<path d="M51.6829 109.117C55.1451 107.647 59.139 108.245 62.0197 110.663L305.819 315.319C311.494 320.083 310.198 329.149 303.415 332.132L269.152 347.2C265.621 348.753 261.512 348.136 258.592 345.616L18.8882 138.697C13.2821 133.858 14.6982 124.816 21.5153 121.922L51.6829 109.117Z" fill="#FAF8FF"/>
</svg>
