<svg width="620" height="472" viewBox="0 0 620 472" fill="none" xmlns="http://www.w3.org/2000/svg">
<ellipse cx="310" cy="455.5" rx="110" ry="16.5" fill="url(#paint0_linear_43_25)"/>
<ellipse cx="313.5" cy="431.5" rx="163.5" ry="24.5" fill="url(#paint1_linear_43_25)"/>
<ellipse cx="310.5" cy="400.5" rx="210.5" ry="31.5" fill="url(#paint2_linear_43_25)"/>
<ellipse cx="310" cy="369.5" rx="243" ry="36.5" fill="url(#paint3_linear_43_25)"/>
<ellipse cx="313" cy="339" rx="268" ry="40" fill="url(#paint4_linear_43_25)"/>
<ellipse cx="310" cy="301.5" rx="290" ry="43.5" fill="url(#paint5_linear_43_25)"/>
<ellipse cx="313.5" cy="263.5" rx="303.5" ry="45.5" fill="url(#paint6_linear_43_25)"/>
<ellipse cx="310" cy="224.5" rx="310" ry="46.5" fill="url(#paint7_linear_43_25)"/>
<ellipse cx="313.5" cy="188.5" rx="303.5" ry="45.5" fill="url(#paint8_linear_43_25)"/>
<ellipse cx="313" cy="150.5" rx="290" ry="43.5" fill="url(#paint9_linear_43_25)"/>
<ellipse cx="313" cy="118" rx="268" ry="40" fill="url(#paint10_linear_43_25)"/>
<ellipse cx="313" cy="89.5" rx="243" ry="36.5" fill="url(#paint11_linear_43_25)"/>
<ellipse cx="313.5" cy="64.5" rx="210.5" ry="31.5" fill="url(#paint12_linear_43_25)"/>
<ellipse cx="313.5" cy="39.5" rx="163.5" ry="24.5" fill="url(#paint13_linear_43_25)"/>
<ellipse cx="313" cy="16.5" rx="110" ry="16.5" fill="url(#paint14_linear_43_25)"/>
<defs>
<linearGradient id="paint0_linear_43_25" x1="310" y1="439" x2="310" y2="464.5" gradientUnits="userSpaceOnUse">
<stop/>
<stop offset="1" stop-color="#666666"/>
</linearGradient>
<linearGradient id="paint1_linear_43_25" x1="313" y1="407" x2="313" y2="456" gradientUnits="userSpaceOnUse">
<stop/>
<stop offset="1" stop-color="#666666"/>
</linearGradient>
<linearGradient id="paint2_linear_43_25" x1="309.956" y1="369" x2="309.956" y2="432" gradientUnits="userSpaceOnUse">
<stop/>
<stop offset="1" stop-color="#666666"/>
</linearGradient>
<linearGradient id="paint3_linear_43_25" x1="309.439" y1="333" x2="309.439" y2="406" gradientUnits="userSpaceOnUse">
<stop/>
<stop offset="1" stop-color="#666666"/>
</linearGradient>
<linearGradient id="paint4_linear_43_25" x1="313" y1="299" x2="313" y2="379" gradientUnits="userSpaceOnUse">
<stop/>
<stop offset="1" stop-color="#666666"/>
</linearGradient>
<linearGradient id="paint5_linear_43_25" x1="310" y1="258" x2="310" y2="345" gradientUnits="userSpaceOnUse">
<stop/>
<stop offset="1" stop-color="#666666"/>
</linearGradient>
<linearGradient id="paint6_linear_43_25" x1="313.5" y1="218" x2="313.5" y2="309" gradientUnits="userSpaceOnUse">
<stop/>
<stop offset="1" stop-color="#666666"/>
</linearGradient>
<linearGradient id="paint7_linear_43_25" x1="310" y1="178" x2="310" y2="271" gradientUnits="userSpaceOnUse">
<stop/>
<stop offset="1" stop-color="#666666"/>
</linearGradient>
<linearGradient id="paint8_linear_43_25" x1="313.5" y1="143" x2="313.5" y2="234" gradientUnits="userSpaceOnUse">
<stop/>
<stop offset="1" stop-color="#666666"/>
</linearGradient>
<linearGradient id="paint9_linear_43_25" x1="313" y1="107" x2="313" y2="194" gradientUnits="userSpaceOnUse">
<stop/>
<stop offset="1" stop-color="#666666"/>
</linearGradient>
<linearGradient id="paint10_linear_43_25" x1="313" y1="78" x2="313" y2="158" gradientUnits="userSpaceOnUse">
<stop/>
<stop offset="1" stop-color="#666666"/>
</linearGradient>
<linearGradient id="paint11_linear_43_25" x1="312.439" y1="53" x2="312.439" y2="126" gradientUnits="userSpaceOnUse">
<stop/>
<stop offset="1" stop-color="#666666"/>
</linearGradient>
<linearGradient id="paint12_linear_43_25" x1="312.956" y1="33" x2="312.956" y2="96" gradientUnits="userSpaceOnUse">
<stop/>
<stop offset="1" stop-color="#666666"/>
</linearGradient>
<linearGradient id="paint13_linear_43_25" x1="313" y1="15" x2="313" y2="64" gradientUnits="userSpaceOnUse">
<stop/>
<stop offset="1" stop-color="#666666"/>
</linearGradient>
<linearGradient id="paint14_linear_43_25" x1="313" y1="-9.83477e-07" x2="313" y2="25.5" gradientUnits="userSpaceOnUse">
<stop/>
<stop offset="1" stop-color="#666666"/>
</linearGradient>
</defs>
</svg>
